<svg xmlns="http://www.w3.org/2000/svg" viewBox="0 0 200 200" fill="none">
  <circle cx="100" cy="100" r="96" fill="#f5eedb" stroke="#1f3a2b" stroke-width="3"/>
  <circle cx="100" cy="100" r="88" fill="none" stroke="#1f3a2b" stroke-width="1"/>
  <!-- sun -->
  <circle cx="125" cy="92" r="22" fill="#c9933a"/>
  <!-- water reflection -->
  <path d="M95 118 Q125 122 155 118" stroke="#c9933a" stroke-width="1.5" opacity="0.6" fill="none"/>
  <path d="M100 124 Q125 127 150 124" stroke="#c9933a" stroke-width="1" opacity="0.4" fill="none"/>
  <!-- palms -->
  <g fill="#1f3a2b">
    <rect x="78" y="70" width="2.5" height="50"/>
    <rect x="85" y="65" width="2.5" height="55"/>
    <path d="M79 70 Q60 55 50 62 Q65 60 79 72 Z"/>
    <path d="M79 70 Q98 55 110 60 Q95 62 80 72 Z"/>
    <path d="M79 70 Q70 50 62 45 Q73 58 80 72 Z"/>
    <path d="M86 65 Q70 50 58 55 Q75 58 87 68 Z"/>
    <path d="M86 65 Q102 50 115 53 Q98 58 87 68 Z"/>
    <path d="M86 65 Q92 45 98 40 Q90 55 87 68 Z"/>
    <!-- foliage / island base -->
    <ellipse cx="80" cy="125" rx="35" ry="8"/>
    <circle cx="65" cy="118" r="8"/>
    <circle cx="95" cy="118" r="9"/>
    <circle cx="78" cy="115" r="7"/>
    <!-- water line -->
    <rect x="20" y="130" width="160" height="1.5" opacity="0.5"/>
  </g>
  <!-- birds -->
  <path d="M138 70 q4 -4 8 0 q4 -4 8 0" stroke="#1f3a2b" stroke-width="1.5" fill="none" stroke-linecap="round"/>
  <path d="M150 62 q3 -3 6 0 q3 -3 6 0" stroke="#1f3a2b" stroke-width="1.2" fill="none" stroke-linecap="round"/>
  <!-- text band -->
  <text x="100" y="158" text-anchor="middle" font-family="Georgia, serif" font-size="8" fill="#1f3a2b" letter-spacing="2">— POUSADA —</text>
  <text x="100" y="173" text-anchor="middle" font-family="Georgia, serif" font-weight="700" font-size="15" fill="#1f3a2b" letter-spacing="1.5">ILHA DO MEIO</text>
  <text x="100" y="186" text-anchor="middle" font-family="Georgia, serif" font-size="7" fill="#1f3a2b" letter-spacing="3">ITACIMIRIM</text>
</svg>
